<svg width="117" height="24" viewBox="0 0 117 24" fill="none" xmlns="http://www.w3.org/2000/svg">
<path d="M18.816 13.784C18.816 14.296 18.784 14.8293 18.72 15.384H6.336C6.42133 16.4933 6.77333 17.3467 7.392 17.944C8.032 18.52 8.81067 18.808 9.728 18.808C11.0933 18.808 12.0427 18.232 12.576 17.08H18.4C18.1013 18.2533 17.5573 19.3093 16.768 20.248C16 21.1867 15.0293 21.9227 13.856 22.456C12.6827 22.9893 11.3707 23.256 9.92 23.256C8.17067 23.256 6.61333 22.8827 5.248 22.136C3.88267 21.3893 2.816 20.3227 2.048 18.936C1.28 17.5493 0.896 15.928 0.896 14.072C0.896 12.216 1.26933 10.5947 2.016 9.208C2.784 7.82133 3.85067 6.75467 5.216 6.008C6.58133 5.26133 8.14933 4.888 9.92 4.888C11.648 4.888 13.184 5.25067 14.528 5.976C15.872 6.70133 16.9173 7.736 17.664 9.08C18.432 10.424 18.816 11.992 18.816 13.784ZM13.216 12.344C13.216 11.4053 12.896 10.6587 12.256 10.104C11.616 9.54933 10.816 9.272 9.856 9.272C8.93867 9.272 8.16 9.53867 7.52 10.072C6.90133 10.6053 6.51733 11.3627 6.368 12.344H13.216ZM28.4548 18.776H35.6228V23H22.9828V0.535999H28.4548V18.776Z" fill="white"/>
<path d="M56.3448 13.784C56.3448 14.296 56.3128 14.8293 56.2488 15.384H43.8648C43.9501 16.4933 44.3021 17.3467 44.9208 17.944C45.5608 18.52 46.3394 18.808 47.2568 18.808C48.6221 18.808 49.5714 18.232 50.1048 17.08H55.9288C55.6301 18.2533 55.0861 19.3093 54.2968 20.248C53.5288 21.1867 52.5581 21.9227 51.3848 22.456C50.2114 22.9893 48.8994 23.256 47.4488 23.256C45.6994 23.256 44.1421 22.8827 42.7768 22.136C41.4114 21.3893 40.3448 20.3227 39.5768 18.936C38.8088 17.5493 38.4248 15.928 38.4248 14.072C38.4248 12.216 38.7981 10.5947 39.5448 9.208C40.3128 7.82133 41.3794 6.75467 42.7448 6.008C44.1101 5.26133 45.6781 4.888 47.4488 4.888C49.1768 4.888 50.7128 5.25067 52.0568 5.976C53.4008 6.70133 54.4461 7.736 55.1928 9.08C55.9608 10.424 56.3448 11.992 56.3448 13.784ZM50.7448 12.344C50.7448 11.4053 50.4248 10.6587 49.7848 10.104C49.1448 9.54933 48.3448 9.272 47.3848 9.272C46.4674 9.272 45.6888 9.53867 45.0488 10.072C44.4301 10.6053 44.0461 11.3627 43.8968 12.344H50.7448ZM59.4235 14.04C59.4235 12.2053 59.7648 10.5947 60.4475 9.208C61.1515 7.82133 62.1008 6.75467 63.2955 6.008C64.4902 5.26133 65.8235 4.888 67.2955 4.888C68.5542 4.888 69.6528 5.144 70.5915 5.656C71.5515 6.168 72.2875 6.84 72.7995 7.672V5.144H78.2715V23H72.7995V20.472C72.2662 21.304 71.5195 21.976 70.5595 22.488C69.6208 23 68.5222 23.256 67.2635 23.256C65.8128 23.256 64.4902 22.8827 63.2955 22.136C62.1008 21.368 61.1515 20.2907 60.4475 18.904C59.7648 17.496 59.4235 15.8747 59.4235 14.04ZM72.7995 14.072C72.7995 12.7067 72.4155 11.6293 71.6475 10.84C70.9008 10.0507 69.9835 9.656 68.8955 9.656C67.8075 9.656 66.8795 10.0507 66.1115 10.84C65.3648 11.608 64.9915 12.6747 64.9915 14.04C64.9915 15.4053 65.3648 16.4933 66.1115 17.304C66.8795 18.0933 67.8075 18.488 68.8955 18.488C69.9835 18.488 70.9008 18.0933 71.6475 17.304C72.4155 16.5147 72.7995 15.4373 72.7995 14.072ZM88.9823 8.12C89.6223 7.13867 90.4223 6.37067 91.3823 5.816C92.3423 5.24 93.4089 4.952 94.5823 4.952V10.744H93.0783C91.7129 10.744 90.6889 11.0427 90.0063 11.64C89.3236 12.216 88.9823 13.24 88.9823 14.712V23H83.5103V5.144H88.9823V8.12ZM109.358 4.952C111.448 4.952 113.112 5.63467 114.35 7C115.608 8.344 116.238 10.2 116.238 12.568V23H110.798V13.304C110.798 12.1093 110.488 11.1813 109.87 10.52C109.251 9.85867 108.419 9.528 107.374 9.528C106.328 9.528 105.496 9.85867 104.878 10.52C104.259 11.1813 103.95 12.1093 103.95 13.304V23H98.4778V5.144H103.95V7.512C104.504 6.72267 105.251 6.104 106.19 5.656C107.128 5.18667 108.184 4.952 109.358 4.952Z" fill="#113C49"/>
</svg>
