<svg width="38" height="48" viewBox="0 0 38 48" fill="none" xmlns="http://www.w3.org/2000/svg">
<path d="M36.5587 20.5771C35.3532 19.5916 33.6461 19.2762 32.209 19.7732C31.8239 19.9066 31.4663 20.0936 31.1459 20.3293C30.3288 20.9304 28.5148 22.7348 27.0773 24.5205V10.7553C27.0773 9.58525 26.5963 8.44169 25.7578 7.61745C24.9253 6.7993 23.8318 6.35803 22.6843 6.37949C22.1633 6.38879 21.6641 6.49213 21.2028 6.67271V5.32819C21.2028 4.05482 20.6793 2.81007 19.7661 1.91252C18.861 1.02285 17.6767 0.543327 16.4241 0.566213C13.9267 0.609481 11.8877 2.6395 11.813 5.12114C11.272 4.87584 10.6845 4.73817 10.0762 4.71993C8.80748 4.68274 7.55092 5.17371 6.62978 6.06803C5.72759 6.94376 5.23055 8.09984 5.23055 9.31992L5.22733 10.6237C4.83792 10.4957 4.42276 10.4256 3.99116 10.4256C1.8131 10.4256 0.0412598 12.1974 0.0412598 14.3751L0.0426901 34.3849L0.0459084 34.4797C0.22792 37.1058 0.777529 39.3543 1.68008 41.163C2.52613 42.8586 3.70652 44.2239 5.18835 45.2208C8.10447 47.1833 11.7068 47.435 14.5192 47.435C20.0421 47.435 25.0108 44.6891 27.4956 40.2665C27.7978 39.7795 28.5942 38.5272 29.4541 37.1766C30.2916 35.8607 31.0708 34.6481 31.7577 33.5782C32.1353 32.99 32.479 32.455 32.7772 31.9887C33.8882 30.2512 35.0722 28.5666 36.2966 26.9815C36.7507 26.3936 36.8905 26.2341 36.9223 26.1991C37.4955 25.5736 37.8567 24.808 37.9668 23.9845C38.1403 22.6926 37.6268 21.4503 36.5587 20.5771ZM35.242 23.6198C35.2066 23.883 35.0868 24.1326 34.8955 24.3414C34.7958 24.4505 34.6173 24.6579 34.121 25.3008C32.8469 26.95 31.6154 28.7018 30.4608 30.5076C30.1632 30.9728 29.821 31.5056 29.4441 32.0924C28.7558 33.1645 27.9755 34.3799 27.1348 35.7001C26.2548 37.0825 25.4402 38.3631 25.142 38.8447L25.1109 38.8977C23.1166 42.4678 19.0584 44.6855 14.5196 44.6855C12.0976 44.6855 9.02239 44.4871 6.72347 42.9402C4.37771 41.3618 3.09183 38.5476 2.79217 34.3366L2.79074 14.3755C2.79074 13.7136 3.32926 13.1751 3.99116 13.1751C4.65698 13.1751 5.19872 13.7136 5.19872 14.3755V21.8637C5.19872 21.8859 5.20123 21.9073 5.20194 21.9295C5.20337 21.9538 5.20337 21.9785 5.20588 22.0028C5.20802 22.0246 5.21231 22.0457 5.21553 22.0671C5.21911 22.0911 5.22161 22.1154 5.22626 22.1394C5.23091 22.1608 5.23734 22.1819 5.24271 22.203C5.24843 22.2256 5.25308 22.2488 5.26023 22.271C5.26666 22.2924 5.27525 22.3132 5.28311 22.3339C5.29062 22.355 5.29742 22.3765 5.30636 22.3972C5.31494 22.4179 5.32531 22.4376 5.33496 22.4576C5.34462 22.4777 5.35356 22.498 5.36393 22.5177C5.3743 22.537 5.38681 22.5556 5.39826 22.5746C5.4097 22.5935 5.42043 22.6128 5.43259 22.6311C5.4451 22.6493 5.45905 22.6665 5.47228 22.684C5.48551 22.7019 5.49767 22.7201 5.51161 22.7369C5.52556 22.7537 5.54093 22.7691 5.55524 22.7852C5.57026 22.8016 5.58456 22.8192 5.60029 22.8349C5.61567 22.8499 5.63176 22.8635 5.64785 22.8782C5.6643 22.8932 5.68039 22.9093 5.69791 22.9236C5.71436 22.9372 5.73188 22.9493 5.74905 22.9622C5.76729 22.9758 5.78481 22.9901 5.8034 23.003C5.82092 23.0148 5.83952 23.0248 5.8574 23.0355C5.87706 23.0476 5.89637 23.0605 5.91676 23.072C5.93535 23.082 5.95502 23.0902 5.97397 23.0995C5.99471 23.1099 6.01545 23.1206 6.03691 23.1299C6.05657 23.1385 6.07767 23.1449 6.0977 23.1524C6.11951 23.1603 6.14096 23.1692 6.16313 23.1764C6.18423 23.1828 6.2064 23.1875 6.22786 23.1932C6.25038 23.1989 6.2722 23.2057 6.29472 23.2104C6.31761 23.215 6.3405 23.2175 6.36338 23.2211C6.38627 23.2243 6.40844 23.2289 6.43132 23.2314C6.45421 23.2336 6.47781 23.234 6.50105 23.235C6.52394 23.2361 6.54682 23.2386 6.57007 23.2386C6.57114 23.2386 6.57257 23.2386 6.57364 23.2386C6.6212 23.2386 6.66805 23.2361 6.71417 23.2314C6.7342 23.2297 6.75387 23.2254 6.77389 23.2225C6.79928 23.2189 6.82538 23.2161 6.85041 23.2107C6.87688 23.2053 6.90226 23.1978 6.92801 23.191C6.94589 23.186 6.96448 23.1825 6.98201 23.1771C7.01061 23.1682 7.0385 23.1571 7.0664 23.1463C7.07998 23.141 7.09465 23.1367 7.10823 23.131C7.13613 23.1192 7.16259 23.1052 7.18941 23.092C7.20228 23.0856 7.21551 23.0802 7.22838 23.0734C7.25341 23.0598 7.27701 23.0441 7.30097 23.0291C7.31456 23.0208 7.32851 23.0133 7.34138 23.0044C7.36355 22.9897 7.38465 22.9729 7.40575 22.9565C7.41969 22.9461 7.43399 22.9364 7.44723 22.9254C7.46689 22.9096 7.48477 22.8917 7.50337 22.8746C7.51731 22.8621 7.53162 22.8499 7.5452 22.837C7.56237 22.8199 7.57774 22.8013 7.59384 22.7834C7.60707 22.7687 7.62137 22.7544 7.63388 22.7394C7.64819 22.7219 7.66106 22.7033 7.67465 22.6851C7.68752 22.6679 7.70111 22.6514 7.71291 22.6336C7.72543 22.6153 7.7358 22.5964 7.74724 22.5774C7.75868 22.5585 7.7712 22.5399 7.78193 22.5206C7.7923 22.5013 7.80088 22.4812 7.81053 22.4616C7.82019 22.4412 7.83091 22.4212 7.83985 22.4004C7.84844 22.3804 7.85487 22.3593 7.86238 22.3389C7.87061 22.3175 7.87919 22.2964 7.88634 22.2742C7.89278 22.2531 7.89743 22.2316 7.90279 22.2102C7.90851 22.1877 7.91531 22.1655 7.92031 22.1426C7.9246 22.1211 7.92711 22.0986 7.93032 22.0764C7.93426 22.0532 7.93855 22.03 7.94105 22.0064C7.94355 21.9842 7.94355 21.9613 7.94463 21.9388C7.94606 21.9148 7.94856 21.8916 7.94856 21.8676L7.98039 9.3235C7.98039 8.85005 8.18099 8.39449 8.54501 8.04083C8.93621 7.66144 9.46544 7.45189 9.99503 7.46834C10.987 7.49802 11.794 8.36087 11.794 9.39394L11.8098 21.7911C11.8098 21.8161 11.8123 21.8404 11.8137 21.8648C11.8148 21.8866 11.8148 21.9091 11.8169 21.9306C11.8194 21.9563 11.8244 21.981 11.8284 22.006C11.8316 22.0264 11.8337 22.0471 11.8377 22.0671C11.8434 22.0943 11.8513 22.1208 11.8584 22.1472C11.8631 22.1644 11.8666 22.1819 11.8716 22.1987C11.8806 22.2273 11.892 22.2552 11.9027 22.2831C11.9081 22.2971 11.912 22.3114 11.9178 22.325C11.9306 22.3546 11.9453 22.3836 11.96 22.4122C11.9657 22.4229 11.97 22.4344 11.9757 22.4448C11.9918 22.4744 12.01 22.5027 12.0279 22.5306C12.0336 22.5399 12.0386 22.5492 12.0447 22.5581C12.0637 22.5864 12.0844 22.6128 12.1051 22.6393C12.1116 22.6475 12.1173 22.6561 12.1237 22.664C12.147 22.6922 12.172 22.7187 12.1974 22.7448C12.2028 22.7505 12.2071 22.7562 12.2124 22.7616C12.2385 22.7877 12.2664 22.812 12.2947 22.836C12.3 22.8406 12.3047 22.8456 12.31 22.8503C12.3383 22.8735 12.3676 22.8946 12.3973 22.9153C12.4037 22.92 12.4094 22.925 12.4159 22.9293C12.4459 22.9497 12.4774 22.9679 12.5089 22.9858C12.5156 22.9897 12.5221 22.9944 12.5292 22.9983C12.5621 23.0158 12.5961 23.0316 12.6304 23.0469C12.6369 23.0498 12.643 23.0534 12.6494 23.0562C12.6844 23.0709 12.7205 23.0834 12.757 23.0956C12.7635 23.0974 12.7692 23.1002 12.7756 23.1024C12.8117 23.1134 12.8486 23.1224 12.8854 23.1306C12.8929 23.132 12.9001 23.1345 12.9076 23.1363C12.997 23.1546 13.0896 23.1642 13.1843 23.1642C13.1851 23.1642 13.1858 23.1642 13.1865 23.1642C13.2104 23.1642 13.234 23.1617 13.2576 23.1606C13.2805 23.1592 13.3034 23.1592 13.3259 23.1571C13.351 23.1542 13.3749 23.1496 13.3996 23.1456C13.4203 23.1424 13.4418 23.1403 13.4625 23.136C13.4872 23.131 13.5112 23.1238 13.5355 23.1174C13.5552 23.112 13.5748 23.1081 13.5941 23.102C13.6188 23.0945 13.6424 23.0848 13.6664 23.0755C13.6842 23.0687 13.7028 23.0634 13.7204 23.0559C13.745 23.0451 13.769 23.0326 13.7929 23.0208C13.8087 23.013 13.8251 23.0062 13.8405 22.9979C13.8641 22.9851 13.8866 22.9701 13.9095 22.9561C13.9242 22.9468 13.9396 22.9386 13.9539 22.9289C13.9757 22.9143 13.9961 22.8978 14.0168 22.8817C14.0311 22.871 14.0458 22.861 14.0597 22.8495C14.0794 22.8335 14.098 22.8152 14.1169 22.7977C14.1302 22.7855 14.1441 22.7737 14.1573 22.7609C14.1748 22.743 14.1913 22.7237 14.2081 22.7051C14.2206 22.6911 14.2339 22.6779 14.246 22.6632C14.261 22.6446 14.2746 22.625 14.2886 22.606C14.3007 22.5896 14.3136 22.5738 14.325 22.5574C14.3379 22.5384 14.3486 22.5184 14.3604 22.4988C14.3715 22.4805 14.3837 22.4626 14.3937 22.444C14.4044 22.4244 14.413 22.4036 14.4227 22.3836C14.4323 22.3636 14.443 22.3443 14.4516 22.3235C14.4598 22.3039 14.4666 22.2831 14.4738 22.2627C14.482 22.2409 14.491 22.2195 14.4977 22.1973C14.5042 22.1759 14.5088 22.154 14.5146 22.1322C14.5203 22.1101 14.5271 22.0882 14.5314 22.0657C14.536 22.0432 14.5385 22.0199 14.5421 21.9974C14.5453 21.9745 14.55 21.952 14.5521 21.9291C14.5546 21.9059 14.5546 21.8823 14.5557 21.8587C14.5571 21.8354 14.5593 21.8129 14.5593 21.7893V5.26239C14.5593 4.2068 15.4175 3.33357 16.472 3.31533C16.9808 3.30818 17.4643 3.50485 17.8394 3.87353C18.2299 4.25722 18.4537 4.78752 18.4537 5.32819V21.8651C18.4537 21.8901 18.4562 21.9145 18.4577 21.9391C18.4587 21.9609 18.4587 21.9831 18.4609 22.0049C18.4634 22.0292 18.4684 22.0528 18.472 22.0768C18.4755 22.0986 18.4777 22.1204 18.482 22.1415C18.487 22.1655 18.4941 22.1887 18.5002 22.2123C18.5056 22.2327 18.5095 22.2531 18.5159 22.2731C18.5238 22.2985 18.5338 22.3232 18.5431 22.3479C18.5496 22.365 18.5549 22.3825 18.5621 22.3993C18.5732 22.4251 18.586 22.4498 18.5985 22.4748C18.6057 22.4895 18.6121 22.5048 18.62 22.5195C18.6336 22.5449 18.6493 22.5688 18.6647 22.5932C18.6729 22.606 18.6801 22.62 18.689 22.6329C18.7055 22.6572 18.7237 22.6804 18.7419 22.7037C18.7509 22.7151 18.7587 22.7273 18.768 22.7383C18.7881 22.763 18.8102 22.7859 18.8321 22.8091C18.8406 22.8177 18.8481 22.8274 18.8567 22.836C18.8793 22.8588 18.9036 22.8796 18.9279 22.9007C18.9368 22.9085 18.945 22.9171 18.9543 22.9246C18.9815 22.9472 19.0101 22.9676 19.0387 22.9879C19.0459 22.9929 19.0527 22.9987 19.0602 23.004C19.0909 23.0248 19.1231 23.0437 19.1557 23.062C19.1617 23.0652 19.1671 23.0695 19.1732 23.0727C19.2089 23.092 19.2454 23.1092 19.283 23.1256C19.2865 23.127 19.2898 23.1292 19.2933 23.1306C19.3323 23.1471 19.3724 23.1614 19.4131 23.1742C19.4153 23.1753 19.4174 23.176 19.4199 23.1767C19.5054 23.2036 19.5944 23.2218 19.6863 23.2314C19.687 23.2314 19.6874 23.2314 19.6881 23.2314C19.7342 23.2361 19.7811 23.2386 19.8286 23.2386C19.829 23.2386 19.8294 23.2386 19.8301 23.2386C19.8544 23.2386 19.8783 23.2361 19.9027 23.235C19.9252 23.2336 19.9477 23.2336 19.9699 23.2314C19.9953 23.2289 20.02 23.2239 20.045 23.22C20.0654 23.2168 20.0861 23.2146 20.1065 23.2104C20.1333 23.205 20.1591 23.1971 20.1852 23.1903C20.2027 23.1857 20.2209 23.1821 20.2381 23.1767C20.266 23.1678 20.2928 23.1571 20.32 23.1467C20.3346 23.141 20.3496 23.1363 20.3643 23.1303C20.3918 23.1185 20.4183 23.1049 20.4451 23.0913C20.458 23.0848 20.4716 23.0795 20.4845 23.0723C20.5106 23.058 20.5356 23.0419 20.561 23.0258C20.5731 23.0183 20.5857 23.0115 20.5978 23.0033C20.6236 22.9861 20.6475 22.9668 20.6718 22.9479C20.6822 22.94 20.6933 22.9325 20.7037 22.9243C20.7276 22.9043 20.7501 22.8824 20.773 22.861C20.7823 22.8524 20.7923 22.8445 20.8009 22.8356C20.8231 22.8134 20.8438 22.7898 20.8642 22.7659C20.8728 22.7566 20.8817 22.7476 20.89 22.738C20.9096 22.714 20.9275 22.6886 20.9454 22.6636C20.9529 22.6529 20.9615 22.6429 20.969 22.6321C20.9858 22.6071 21.0008 22.581 21.0158 22.5549C21.023 22.5427 21.0312 22.5313 21.038 22.5188C21.0523 22.4923 21.0645 22.4648 21.077 22.4373C21.0831 22.4244 21.0902 22.4119 21.0956 22.3986C21.107 22.3718 21.1163 22.3439 21.126 22.3164C21.131 22.3017 21.1374 22.2874 21.1421 22.272C21.1499 22.2459 21.156 22.2184 21.1628 22.1916C21.1667 22.1744 21.1721 22.1576 21.1757 22.1405C21.181 22.114 21.1843 22.0865 21.1882 22.0596C21.1907 22.041 21.1946 22.0228 21.1964 22.0039C21.1993 21.9788 21.1993 21.9531 21.2003 21.9273C21.2014 21.9062 21.2036 21.8855 21.2036 21.8637V10.5168C21.293 9.74974 21.9441 9.1422 22.7326 9.12861C23.1377 9.12182 23.5289 9.2813 23.8311 9.57845C24.1472 9.88884 24.3285 10.3179 24.3285 10.7553V26.9822L24.3292 27.0437C24.3367 27.9344 24.9217 28.6871 25.7846 28.9167C26.6417 29.1445 27.5175 28.7844 27.968 28.0127L27.9766 27.9974C29.0544 26.1143 31.9351 23.1628 32.7761 22.5442C32.8734 22.4723 32.9853 22.4147 33.1087 22.3718C33.6565 22.1826 34.3434 22.3167 34.819 22.7058C35.0429 22.8892 35.2985 23.1968 35.242 23.6198Z" fill="black"/>
</svg>
